#!OML:ASF F:\VICON\USERDATA\INSTALL\rory3\rory3.ASF
:FULLY-SPECIFIED
:DEGREES
131
root -0.19253797675571616 17.91688830522 54.17303898962242 -1.829617213807065 -3.4933330278613046 -4.299698478938627
lfemur -12.808545549656385 -2.966243820335966 -19.036731519485972
ltibia 20.766368903327816
lfoot 10.470005569323359 -16.281565183218447
ltoes -0.5149462022913087
rfemur -17.121337527848816 4.41373764149335 25.820172931620835
rtibia 29.295414767118515
rfoot -11.520247547418197 -6.28263840386898
rtoes 1.9942974048206783
lowerback 9.710285149072426 0.12082298096513705 2.9729783618876064
upperback 0.04366720824381552 0.692419569541868 1.8066624314275779
thorax -5.582802842289853 0.26375073011643924 -0.32719307491614624
lowerneck -15.880676115012147 -2.789434172345899 -3.378110603678533
upperneck 22.454902618301745 -3.2874354183777497 0.982341584234347
head 9.60392868621175 -1.6712915090717435 0.8820970124511964
lclavicle 1.4518888113330435e-16 2.3560320227143967e-16
lhumerus -29.50659302321613 2.7536498192502434 79.65912611782163
lradius 27.67657909064729
lwrist 5.8622692379263475
lhand -28.383091037299465 20.613391980181934
lfingers 7.12502
lthumb -1.6281994727890141 51.26087825457723
rclavicle 1.4583630818385614e-16 2.361263189617678e-16
rhumerus -26.333007694948755 -16.648580894232914 -77.91390255251638
rradius 19.159988108940176
rwrist 10.408857301704142
rhand -17.86037620264639 22.68523207159607
rfingers 7.12502
rthumb 7.9388245712599455 -7.1162183146181714
132
root -0.18784123949313558 17.924128867215536 53.934289308930545 -1.794297061398201 -3.5488783120740925 -4.465346818921482
lfemur -13.196125800076036 -2.9686191774344133 -18.6019827610025
ltibia 20.541656274007043
lfoot 9.264729764830658 -14.631032294063505
ltoes 0.25461846270472055
rfemur -15.88738414164359 4.946751161531746 26.089989189141345
rtibia 27.954735514683186
rfoot -11.31094586838695 -4.948879335299813
rtoes 1.7764429675698454
lowerback 9.656092834879393 0.20781154746529912 3.133259886893245
upperback 0.021180593100120382 0.8291061645830198 1.7810206135416988
thorax -5.538023191741583 0.32897619147017293 -0.5163961468897937
lowerneck -15.892393253204727 -2.779434273973684 -3.384414917801688
upperneck 22.496656644510818 -3.2664508338222498 0.8858779692763604
head 9.61711494738318 -1.6641264140524847 0.847203281564792
lclavicle 1.4517869060280073e-16 2.355955990203332e-16
lhumerus -29.64376865605544 2.9214570037049996 79.66095461026804
lradius 28.391058631664876
lwrist 6.477470720320229
lhand -28.622978959897566 20.21662965996373
lfingers 7.12502
lthumb -1.833363137589533 50.94532696365686
rclavicle 1.452821653040645e-16 2.357002306775612e-16
rhumerus -26.424423973430255 -17.005442156417974 -77.68100185162457
rradius 19.070138569330254
rwrist 10.516925234275515
rhand -17.932250915291494 22.64444598819876
rfingers 7.12502
rthumb 7.823397737769298 -7.289460858541579
133
root -0.1770295937172216 17.927793456148315 53.78083430267278 -1.7747347993784692 -3.5984554714406056 -4.48269692911099
lfemur -13.679280601778295 -3.025689472564966 -18.311727757691543
ltibia 20.685073732462833
lfoot 8.75288963043467 -12.8335690895215
ltoes 0.7535963883279058
rfemur -14.753160210206445 5.316937561447329 26.27624201970222
rtibia 27.243333500681615
rfoot -10.961735187425013 -3.8936988112159887
rtoes 1.7840832674268008
lowerback 9.6186158369171 0.3084904838568159 3.195770028203609
upperback 0.04410131312383837 0.9461126151482087 1.7300186141196456
thorax -5.446059108098697 0.3859103122761711 -0.6697467369134249
lowerneck -15.918838792869371 -2.7728393513087943 -3.396096190324047
upperneck 22.467647364265133 -3.2560060493087324 0.8528594988196886
head 9.606452930247567 -1.6583415231338878 0.8389589779046475
lclavicle 1.448680949333043e-16 2.3535809457160005e-16
lhumerus -29.92014889997914 3.0317844570477948 79.68441376484323
lradius 28.949566974200792
lwrist 6.868307340483024
lhand -28.910039464625715 20.069080693798423
lfingers 7.12502
lthumb -2.0924840086650147 50.70823561494348
rclavicle 1.4529983536724546e-16 2.3571382990236963e-16
rhumerus -26.51039483610422 -17.394251047171952 -77.45558301410996
rradius 18.968456636525254
rwrist 10.591261024594171
rhand -17.96074074887682 22.75861342791534
rfingers 7.12502
rthumb 7.764401334145924 -7.195760383180575
134
root -0.16633028816560746 17.940502949158653 53.647021277047976 -1.779823432397277 -3.766416938044932 -4.4810513546549515
lfemur -14.032815961817146 -2.919182261903971 -18.0946421163204
ltibia 21.04457327022459
lfoot 8.75321404431686 -11.409523477154837
ltoes 1.334541202075922
rfemur -13.626765547896541 5.731358859451479 26.445758426734656
rtibia 26.74136917920179
rfoot -10.549871456607917 -3.0135361540005587
rtoes 1.9168956884900457
lowerback 9.553288104182975 0.4424332478642238 3.199015767823142
upperback 0.06667373050198029 1.1239854924678754 1.6872424967809696
thorax -5.343913857482423 0.4832803120892579 -0.8141663573628612
lowerneck -15.954376835304087 -2.7589104975905 -3.3945726866037864
upperneck 22.472195328403302 -3.2335783635437076 0.7854136960961079
head 9.613326715395601 -1.6517041107230472 0.8190550117828768
lclavicle 1.452311360601186e-16 2.356380309177744e-16
lhumerus -30.24952995851696 3.1457703437663374 79.71208521685898
lradius 29.275366289604296
lwrist 7.057430268624513
lhand -29.18876378328975 20.041200968814497
lfingers 7.12502
lthumb -2.3701887379800883 50.4873411858152
rclavicle 1.4575760877084672e-16 2.360658292934584e-16
rhumerus -26.499770009366305 -17.842523489700223 -77.17657322855001
rradius 18.746426250997423
rwrist 10.866783245767444
rhand -17.96046417099876 22.84584497995197
rfingers 7.12502
rthumb 7.757812816352399 -7.161609276348615
135
root -0.15737873394499224 17.941039874133345 53.469887653167504 -1.711008368571021 -3.8911569303382114 -4.576266881200516
lfemur -14.525774734917206 -2.7581401785456707 -17.810313383196462
ltibia 21.381520760731085
lfoot 8.525757970148824 -10.549766833780957
ltoes 1.7515907069809025
rfemur -12.539698233015782 6.1155956524205095 26.664282332406458
rtibia 26.596651616727268
rfoot -10.042405422590024 -2.2809754303620235
rtoes 2.5942530674133435
lowerback 9.405062520239884 0.5474327720726635 3.3194543589601544
upperback 0.07989488282697303 1.2975369824641203 1.6476405380152674
thorax -5.19353884204898 0.5741389518309719 -0.968727744888547
lowerneck -15.978796622437617 -2.735692040655325 -3.388881906836663
upperneck 22.462097102342465 -3.1960296540757276 0.6985766189355159
head 9.610859215530322 -1.6388334417692658 0.7928021988793069
lclavicle 1.4538657350417552e-16 2.3575679660812066e-16
lhumerus -30.752335930648943 3.4064754070186316 79.75791724987104
lradius 29.321935920922957
lwrist 6.962388926815397
lhand -29.315646273486145 19.86327990563005
lfingers 7.12502
lthumb -2.5162757963171924 50.268840486561196
rclavicle 1.4561764152434274e-16 2.359582008250153e-16
rhumerus -26.529248891280194 -18.481262782923192 -76.86038942404657
rradius 18.488765634845425
rwrist 11.210949813466348
rhand -17.976967660833207 22.876985522263716
rfingers 7.12502
rthumb 7.761950426649829 -7.09605347801951
